<ttFont>
          <CharString index="0">
            40 -26 34 -46 -50 -25 -34 -44 -40 25 -33 47 49 26 33 44 vhcurveto
            return
          </CharString>
          <CharString index="1">
            rmoveto
            -107 callsubr
            -100 callsubr
          </CharString>
          <CharString index="2">
            -44 callsubr
            -212 92 -124 211 213 102 142 208 211 -92 131 -210 hvcurveto
            -14 -117 rmoveto
            108 30 -100 -135 -142 -37 -81 -86 -35 callsubr
            hvcurveto
            return
          </CharString>
          <CharString index="3">
            27 237 rmoveto
            -147 65 -99 163 106 91 45 0 vhcurveto
            -30 104 rlineto
            -77 callsubr
            -143 -111 -96 -179 vhcurveto
            234 162 -58 callsubr
            return
          </CharString>
          <CharString index="4">
            -72 callsubr
            158 78 115 151 160 -69 96 -159 hvcurveto
            -85 callsubr
            return
          </CharString>
          <CharString index="5">
            -1 hmoveto
            -67 callsubr
            -248 677 rlineto
            -147 hlineto
            -3 -392 -57 callsubr
            return
          </CharString>
          <CharString index="6">
            -30 callsubr
            -41 -48 -35 vhcurveto
            58 -79 rlineto
            109 55 47 85 85 vvcurveto
            49 -39 callsubr
            return
          </CharString>
          <CharString index="7">
            215 hmoveto
            -107 callsubr
            endchar
          </CharString>
          <CharString index="8">
            -20 -28 callsubr
            hintmask 10111101
            -98 callsubr
            hintmask 01111101
            -63 callsubr
            hintmask 10111110
            -95 callsubr
            return
          </CharString>
          <CharString index="9">
            477 480 rmoveto
            -2 -114 29 -83 -88 callsubr
            return
          </CharString>
          <CharString index="10">
            -20 hstemhm
            27 163 53 callsubr
            hintmask 11100110
            -104 callsubr
            hintmask 00011000
            return
          </CharString>
          <CharString index="11">
            52 54 callsubr
            -412 vlineto
            -142 71 -129 204 213 76 128 143 vhcurveto
            412 -165 -403 vlineto
            -101 -40 -52 -71 -70 -54 37 116 vhcurveto
            403 vlineto
            return
          </CharString>
          <CharString index="12">
            -231 -131 -94 callsubr
            return
          </CharString>
          <CharString index="13">
            -78 callsubr
            -116 vlineto
            -84 -32 -75 -41 vhcurveto
            return
          </CharString>
          <CharString index="14">
            -20 39 callsubr
            hintmask 11001100
            -105 callsubr
            hintmask 00110000
            return
          </CharString>
          <CharString index="15">
            169 -33 callsubr
            -2 -14 -69 callsubr
            return
          </CharString>
          <CharString index="16">
            hintmask 11100000
            -102 callsubr
            return
          </CharString>
          <CharString index="17">
            -20 hstemhm
            -6 callsubr
            hintmask 11001100
            -103 callsubr
            hintmask 00110000
            return
          </CharString>
          <CharString index="18">
            7 callsubr
            hintmask 10111110
            -86 callsubr
            hintmask 01111110
            -60 callsubr
            return
          </CharString>
          <CharString index="19">
            hhcurveto
            -76 callsubr
            72 43 36 62 22 hvcurveto
            return
          </CharString>
          <CharString index="20">
            -101 callsubr
            endchar
          </CharString>
          <CharString index="21">
            327 252 rmoveto
            -87 -39 -54 -37 -31 -9 31 47 -54 callsubr
            70 65 28 62 35 vhcurveto
            return
          </CharString>
          <CharString index="22">
            -9 -119 rmoveto
            57 13 -65 -82 -75 -11 -62 -49 -57 -13 66 81 77 11 60 49 hvcurveto
            return
          </CharString>
          <CharString index="23">
            0 vvcurveto
            127 40 rlineto
            0 -55 51 158 vvcurveto
            return
          </CharString>
          <CharString index="24">
            3 callsubr
            hintmask 11100110
            -66 callsubr
            hintmask 11001110
            -36 callsubr
          </CharString>
          <CharString index="25">
            hintmask 11001000
            -92 callsubr
            return
          </CharString>
          <CharString index="26">
            -20 hstemhm
            52 164 235 165 hintmask 11001100
            -96 callsubr
            hintmask 00110000
            return
          </CharString>
          <CharString index="27">
            -40 callsubr
            69 -21 285 -99 callsubr
            return
          </CharString>
          <CharString index="28">
            62 hmoveto
            445 -71 callsubr
            -431 hlineto
            return
          </CharString>
          <CharString index="29">
            -52 callsubr
            12 20 -4 -4 9 hvcurveto
            return
          </CharString>
          <CharString index="30">
            0 -84 -32 -58 -50 -68 callsubr
            return
          </CharString>
          <CharString index="31">
            -65 callsubr
            131 return
          </CharString>
          <CharString index="32">
            rmoveto
            28 12 55 23 61 43 61 -43 56 -24 26 -11 62 75 rcurveline
            -205 176 -205 -176 rlineto
            endchar
          </CharString>
          <CharString index="33">
            rmoveto
            28 14 48 24 58 44 58 -44 49 -25 26 -13 61 74 rcurveline
            -194 197 -195 -197 rlineto
            endchar
          </CharString>
          <CharString index="34">
            -20 hstemhm
            -91 callsubr
            hintmask 00011000
            return
          </CharString>
          <CharString index="35">
            -53 callsubr
            -158 69 -97 160 return
          </CharString>
          <CharString index="36">
            -18 callsubr
            hlineto
            19 119 rlineto
            -221 145 266 121 return
          </CharString>
          <CharString index="37">
            -14 callsubr
            66 -21 285 -97 callsubr
            return
          </CharString>
          <CharString index="38">
            -3 -10 hhcurveto
            -19 -9 9 30 hvcurveto
            348 -158 -393 vlineto
            -71 52 -42 75 vhcurveto
            return
          </CharString>
          <CharString index="39">
            -23 27 40 -9 vhcurveto
            159 13 99 76 97 vvcurveto
            86 -50 65 -125 return
          </CharString>
          <CharString index="40">
            164 hlineto
            52 70 callsubr
            219 hlineto
            50 -163 rlineto
            167 hlineto
            return
          </CharString>
          <CharString index="41">
            52 55 -20 53 hhcurveto
            49 31 23 0 hvcurveto
            100 vlineto
            0 -31 -14 -49 vhcurveto
            return
          </CharString>
          <CharString index="42">
            -149 -102 -113 -153 -150 62 -99 return
          </CharString>
          <CharString index="43">
            -20 hstemhm
            42 158 -82 callsubr
            hintmask 00110000
            return
          </CharString>
          <CharString index="44">
            12 -66 36 -34 -84 callsubr
            return
          </CharString>
          <CharString index="45">
            -7 callsubr
            60 -21 247 -93 callsubr
            return
          </CharString>
          <CharString index="46">
            66 callsubr
            96 -21 285 -89 callsubr
            return
          </CharString>
          <CharString index="47">
            14 -60 33 -32 -84 callsubr
            261 -158 vlineto
            return
          </CharString>
          <CharString index="48">
            rmoveto
            24 7 132 42 89 97 -100 101 rcurveline
            -207 -173 rlineto
            endchar
          </CharString>
          <CharString index="49">
            rmoveto
            22 16 -17 -25 -32 -30 -47 -79 -19 callsubr
            return
          </CharString>
          <CharString index="50">
            rmoveto
            27 77 30 95 15 51 15 -49 30 -96 27 -78 rrcurveto
            return
          </CharString>
          <CharString index="51">
            rmoveto
            0 135 82 84 104 vhcurveto
            -104 99 -182 -214 rlineto
            endchar
          </CharString>
          <CharString index="52">
            9 callsubr
            hintmask 11100100
            -79 callsubr
            hintmask 00011000
            return
          </CharString>
          <CharString index="53">
            vhcurveto
            313 -159 -334 vlineto
            -106 39 -68 105 return
          </CharString>
          <CharString index="54">
            264 512 rmoveto
            -159 -78 -115 -152 return
          </CharString>
          <CharString index="55">
            rmoveto
            -48 -3 69 74 81 18 59 65 return
          </CharString>
          <CharString index="56">
            -13 callsubr
            215 hmoveto
            -87 callsubr
          </CharString>
          <CharString index="57">
            486 502 rmoveto
            -159 -256 hlineto
            -82 -41 -53 -35 -31 -9 32 46 -54 callsubr
            69 64 26 59 35 vhcurveto
            return
          </CharString>
          <CharString index="58">
            74 callsubr
            89 -21 247 -81 callsubr
            return
          </CharString>
          <CharString index="59">
            rmoveto
            -87 callsubr
          </CharString>
          <CharString index="60">
            26 callsubr
            89 -21 247 -73 callsubr
            return
          </CharString>
          <CharString index="61">
            10 -26 4 -20 -27 8 callsubr
            -59 vhcurveto
            -37 -122 rlineto
            -26 63 70 -16 61 hhcurveto
            135 85 79 139 hvcurveto
            return
          </CharString>
          <CharString index="62">
            -2 22 -17 37 41 vvcurveto
            37 13 41 47 35 vhcurveto
            -57 79 rlineto
            -109 -55 -48 -85 -85 vvcurveto
            -49 21 -42 63 62 26 22 2 1 vhcurveto
            return
          </CharString>
          <CharString index="63">
            353 686 rmoveto
            -214 -102 -147 -209 return
          </CharString>
          <CharString index="64">
            hmoveto
            164 251 hlineto
            216 426 rlineto
            -172 hlineto
            -123 -259 -120 259 rlineto
            -174 hlineto
            209 -417 rlineto
            return
          </CharString>
          <CharString index="65">
            rmoveto
            -207 173 -100 -101 88 -97 132 -42 25 -7 rlinecurve
            endchar
          </CharString>
          <CharString index="66">
            rmoveto
            -183 214 -104 -99 84 -104 125 -74 11 -8 rlinecurve
            endchar
          </CharString>
          <CharString index="67">
            -6 65 callsubr
            -97 -21 401 116 return
          </CharString>
          <CharString index="68">
            -21 42 -62 -62 -26 -22 -2 -2 vhcurveto
            return
          </CharString>
          <CharString index="69">
            2 callsubr
            79 -21 285 -64 callsubr
            return
          </CharString>
          <CharString index="70">
            465 418 rmoveto
            1 -42 5 -77 2 -42 -19 31 -38 63 -24 36 -195 290 rcurveline
            -135 -677 165 hlineto
            -3 260 rlineto
            38 -6 79 -3 41 vhcurveto
            18 -29 43 -72 17 -25 193 -292 rcurveline
            141 677 49 callsubr
            return
          </CharString>
          <CharString index="71">
            -53 -55 20 -52 hhcurveto
            -49 -39 -23 0 hvcurveto
            endchar
          </CharString>
          <CharString index="72">
            -109 -30 95 135 143 37 85 87 return
          </CharString>
          <CharString index="73">
            -26 callsubr
            69 -21 247 -55 callsubr
            return
          </CharString>
          <CharString index="74">
            -4 rmoveto
            54 43 22 2 2 hvcurveto
            -14 99 rlineto
            -1 return
          </CharString>
          <CharString index="75">
            505 hmoveto
            335 vlineto
            105 -40 69 -104 -71 -65 -29 -62 -35 vhcurveto
            -14 59 -32 32 -29 callsubr
            251 vlineto
            87 39 52 37 31 9 -32 -46 vhcurveto
            -312 vlineto
            return
          </CharString>
          <CharString index="76">
            rmoveto
            -58 -32 -40 -52 -47 32 -20 callsubr
            return
          </CharString>
          <CharString index="77">
            3 -22 17 -37 -41 vvcurveto
            -37 -13 return
          </CharString>
          <CharString index="78">
            -27 callsubr
            -260 158 return
          </CharString>
          <CharString index="79">
            hstemhm
            -9 callsubr
            47 callsubr
            return
          </CharString>
          <CharString index="80">
            0 vvcurveto
            -127 -40 rlineto
            0 55 -51 -158 vvcurveto
            return
          </CharString>
          <CharString index="81">
            -26 0 121 171 4 callsubr
            return
          </CharString>
          <CharString index="82">
            169 -8 -11 callsubr
            -308 hmoveto
            -38 -35 -71 -29 -32 -11 46 -87 rcurveline
            29 9 24 15 21 20 40 callsubr
            return
          </CharString>
          <CharString index="83">
            154 vstem
            200 430 rmoveto
            -45 callsubr
            return
          </CharString>
          <CharString index="84">
            rmoveto
            -62 41 -48 66 64 46 44 66 33 callsubr
            74 1 32 callsubr
            -28 -13 -14 -22 -18 -16 14 29 vhcurveto
            endchar
          </CharString>
          <CharString index="85">
            rlineto
            42 52 -13 -27 34 callsubr
            hvcurveto
            0 callsubr
            hintmask 01111100
            56 -41 28 -52 5 vhcurveto
            7 return
          </CharString>
          <CharString index="86">
            -75 rlineto
            0 148 126 82 112 vhcurveto
            -82 111 -148 126 0 vvcurveto
            return
          </CharString>
          <CharString index="87">
            -40 56 58 31 40 51 51 -31 37 -56 hvcurveto
            return
          </CharString>
          <CharString index="88">
            -2 hvcurveto
            57 2 18 66 51 hhcurveto
            return
          </CharString>
          <CharString index="89">
            121 -280 171 202 return
          </CharString>
          <CharString index="90">
            46 callsubr
            677 49 callsubr
            return
          </CharString>
          <CharString index="91">
            0 22 6 21 16 9 -12 -16 -20 -10 -12 -24 -39 -46 27 0 vhcurveto
            -33 -81 rlineto
            -22 38 50 -16 39 hhcurveto
            107 36 60 61 47 -30 28 -41 13 hvcurveto
            return
          </CharString>
          <CharString index="92">
            9 callsubr
            hintmask 11001000
            -17 callsubr
            hintmask 00110000
            return
          </CharString>
          <CharString index="93">
            -71 -9 117 67 101 123 113 return
          </CharString>
          <CharString index="94">
            rmoveto
            -101 callsubr
            return
          </CharString>
          <CharString index="95">
            35 callsubr
            66 -21 callsubr
            endchar
          </CharString>
          <CharString index="96">
            rmoveto
            132 hlineto
            282 602 rlineto
            -133 hlineto
            return
          </CharString>
          <CharString index="97">
            -30 -10 119 284 119 return
          </CharString>
          <CharString index="98">
            13 callsubr
            124 158 return
          </CharString>
          <CharString index="99">
            99 21 -21 163 122 return
          </CharString>
          <CharString index="100">
            -6 117 458 117 return
          </CharString>
          <CharString index="101">
            13 callsubr
            130 167 return
          </CharString>
          <CharString index="102">
            rmoveto
            -114 -64 -84 -103 -106 57 -73 115 115 63 84 103 107 -56 72 -116 hvcurveto
            -6 -83 rmoveto
            34 6 -40 -62 -60 return
          </CharString>
          <CharString index="103">
            -261 -3 callsubr
            89 -21 247 -15 callsubr
            return
          </CharString>
          <CharString index="104">
            21 -21 677 -20 return
          </CharString>
          <CharString index="105">
            -36 112 rlineto
            -15 -37 -46 -13 -47 hhcurveto
            -106 -32 94 136 142 38 86 86 35 34 -12 -45 37 hvcurveto
            endchar
          </CharString>
          <CharString index="106">
            -29 105 rlineto
            -1 -3 -49 -19 -32 hhcurveto
            -43 -56 18 126 127 52 13 33 27 15 -15 -19 16 hvcurveto
            endchar
          </CharString>
          <CharString index="107">
            -23 -75 rlineto
            -14 30 43 -10 42 hhcurveto
            71 60 32 78 hvcurveto
            return
          </CharString>
          <CharString index="108">
            109 -89 89 -89 109 hstemhm
            return
          </CharString>
          <CharString index="109">
            -274 -4 119 387 -20 return
          </CharString>
          <CharString index="110">
            rmoveto
            0 39 14 49 vhcurveto
            return
          </CharString>
          <CharString index="111">
            119 145 121 return
          </CharString>
          <CharString index="112">
            147 68 147 return
          </CharString>
          <CharString index="113">
            -103 -105 -21 855 -20 hstem
            -18 -126 rmoveto
            165 hlineto
            318 855 rlineto
            49 callsubr
            endchar
          </CharString>
          <CharString index="114">
            11 callsubr
            158 return
          </CharString>
          <CharString index="115">
            vvcurveto
            -57 -36 -32 -53 -49 -39 12 20 return
          </CharString>
          <CharString index="116">
            -20 27 callsubr
            return
          </CharString>
          <CharString index="117">
            37 178 262 178 return
          </CharString>
          <CharString index="118">
            -20 36 callsubr
            116 return
          </CharString>
          <CharString index="119">
            -3 callsubr
            hstem
            return
          </CharString>
          <CharString index="120">
            27 168 return
          </CharString>
          <CharString index="121">
            194 vlineto
            -4 16 19 -2 17 hhcurveto
            137 103 116 149 151 -62 99 return
          </CharString>
          <CharString index="122">
            98 46 -2 76 hhcurveto
            227 102 128 207 202 -100 144 -226 hvcurveto
            return
          </CharString>
          <CharString index="123">
            -175 57 callsubr
            42 261 rmoveto
            291 111 -291 hlineto
            endchar
          </CharString>
          <CharString index="124">
            11 -257 rlineto
            111 hlineto
            11 257 rlineto
            return
          </CharString>
          <CharString index="125">
            -3 -215 132 77 80 callsubr
            return
          </CharString>
          <CharString index="126">
            12 callsubr
            62 165 vstem
            -17 callsubr
            return
          </CharString>
          <CharString index="127">
            18 35 22 6 17 hhcurveto
            10 6 -6 -10 -26 -42 -5 -32 -9 hvcurveto
            30 -73 rlineto
            return
          </CharString>
          <CharString index="128">
            62 165 return
          </CharString>
          <CharString index="129">
            rmoveto
            105 50 -78 -154 -134 -38 -83 -117 -24 -10 0 1 -17 hvcurveto
            return
          </CharString>
          <CharString index="130">
            0 -148 -126 -82 -111 vhcurveto
            82 -112 148 -126 0 vvcurveto
            return
          </CharString>
          <CharString index="131">
            537 603 rmoveto
            43 -38 -51 40 -107 hhcurveto
            -204 -98 -149 -207 return
          </CharString>
          <CharString index="132">
            -2 9 callsubr
            126 173 return
          </CharString>
          <CharString index="133">
            -8 callsubr
            392 -20 return
          </CharString>
          <CharString index="134">
            hstemhm
            21 callsubr
            return
          </CharString>
          <CharString index="135">
            416 441 rmoveto
            42 -31 -50 29 -65 hhcurveto
            -139 -104 -95 -180 return
          </CharString>
          <CharString index="136">
            216 -20 hstem
            57 158 return
          </CharString>
          <CharString index="137">
            -21 316 -20 hstem
            return
          </CharString>
          <CharString index="138">
            25 callsubr
            hintmask 11101100
            46 callsubr
            return
          </CharString>
          <CharString index="139">
            rmoveto
            26 13 14 21 22 13 -16 -25 return
          </CharString>
          <CharString index="140">
            63 -41 47 -66 -63 -47 -43 -67 vhcurveto
            return
          </CharString>
          <CharString index="141">
            -16 -14 -8 -31 -21 -27 6 8 -18 return
          </CharString>
          <CharString index="142">
            rmoveto
            130 -163 -130 -163 return
          </CharString>
          <CharString index="143">
            hstemhm
            52 159 return
          </CharString>
          <CharString index="144">
            hlineto
            hintmask 10100000
            -18 -135 rlineto
            103 hlineto
            hintmask 01100000
            17 135 rlineto
            return
          </CharString>
          <CharString index="145">
            -31 -40 -53 -47 31 -39 56 59 31 39 52 50 -31 38 return
          </CharString>
          <CharString index="146">
            hstemhm
            10 callsubr
            return
          </CharString>
          <CharString index="147">
            rrcurveto
            -238 123 356 vlineto
            return
          </CharString>
          <CharString index="148">
            -130 163 130 163 return
          </CharString>
          <CharString index="149">
            30 callsubr
            83 153 return
          </CharString>
          <CharString index="150">
            28 -21 475 -20 hstem
            return
          </CharString>
          <CharString index="151">
            21 -21 390 119 return
          </CharString>
          <CharString index="152">
            116 283 116 return
          </CharString>
          <CharString index="153">
            62 hmoveto
            165 return
          </CharString>
          <CharString index="154">
            -120 120 return
          </CharString>
          <CharString index="155">
            hstem
            21 callsubr
            return
          </CharString>
          <CharString index="156">
            -165 hlineto
            return
          </CharString>
          <CharString index="157">
            28 14 28 22 41 vvcurveto
            58 -48 28 -68 vhcurveto
            endchar
          </CharString>
          <CharString index="158">
            -211 -105 -21 856 -20 hstem
            92 155 vstem
            return
          </CharString>
          <CharString index="159">
            56 callsubr
            45 callsubr
            hstem
            return
          </CharString>
          <CharString index="160">
            109 157 return
          </CharString>
          <CharString index="161">
            677 rmoveto
            return
          </CharString>
          <CharString index="162">
            -75 -80 -18 -59 -65 -13 -20 5 2 -8 hvcurveto
            return
          </CharString>
          <CharString index="163">
            -200 -21 215 return
          </CharString>
          <CharString index="164">
            261 111 hstem
            return
          </CharString>
          <CharString index="165">
            158 vstem
            return
          </CharString>
          <CharString index="166">
            -6 112 396 -20 hstem
            52 158 return
          </CharString>
          <CharString index="167">
            rmoveto
            -56 -54 -18 -18 -33 hvcurveto
            42 -85 rlineto
            return
          </CharString>
          <CharString index="168">
            vmoveto
            500 111 -500 hlineto
            endchar
          </CharString>
          <CharString index="169">
            -236 85 -85 199 return
          </CharString>
          <CharString index="170">
            86 -38 57 1 85 vhcurveto
            return
          </CharString>
          <CharString index="171">
            -158 -27 rlineto
            return
          </CharString>
          <CharString index="172">
            -6 116 return
          </CharString>
          <CharString index="173">
            7 -6 117 -98 -21 510 -20 return
          </CharString>
          <CharString index="174">
            -149 -186 105 696 105 hstemhm
            return
          </CharString>
          <CharString index="175">
            -148 -214 106 726 106 hstemhm
            return
          </CharString>
          <CharString index="176">
            -165 -170 -21 917 -20 hstem
            return
          </CharString>
          <CharString index="177">
            163 rlineto
            return
          </CharString>
          <CharString index="178">
            151 hstemhm
            return
          </CharString>
          <CharString index="179">
            1 8 12 1 17 hhcurveto
            63 -1 return
          </CharString>
          <CharString index="180">
            -58 578 -21 285 -20 hstem
            return
          </CharString>
          <CharString index="181">
            118 -6 127 556 -20 return
          </CharString>
          <CharString index="182">
            rmoveto
            -107 -20 rlineto
            -92 -48 vlineto
            72 return
          </CharString>
          <CharString index="183">
            hlineto
            -79 -225 rlineto
            -63 164 return
          </CharString>
          <CharString index="184">
            vlineto
            21 8 1 22 hhcurveto
            endchar
          </CharString>
          <CharString index="185">
            -31 -47 vhcurveto
            -312 return
          </CharString>
          <CharString index="186">
            155 -104 141 return
          </CharString>
          <CharString index="187">
            117 391 -20 return
          </CharString>
        <CharString name=".notdef">
          -277 endchar
        </CharString>
        <CharString name="A">
          26 callsubr
          hstem
          -102 callsubr
          endchar
        </CharString>
        <CharString name="AE">
          371 0 121 42 122 7 4 callsubr
          hstem
          460 164 vstem
          460 hmoveto
          444 -71 callsubr
          -495 hlineto
          -408 -677 rlineto
          186 hlineto
          93 70 callsubr
          194 hlineto
          363 vmoveto
          -241 -126 vlineto
          endchar
        </CharString>
        <CharString name="Aacute">
          -47 callsubr
          -71 440 -59 callsubr
        </CharString>
        <CharString name="Acircumflex">
          26 callsubr
          89 -21 251 -73 callsubr
          -212 440 -75 callsubr
        </CharString>
        <CharString name="Adieresis">
          26 callsubr
          88 71 callsubr
          143 5 callsubr
          -91 callsubr
          hintmask 00011100
          -107 537 -106 callsubr
        </CharString>
        <CharString name="Agrave">
          -47 callsubr
          -13 514 -42 callsubr
        </CharString>
        <CharString name="Aring">
          -8 callsubr
          324 68 0 -20 103 69 hstem
          215 74 69 74 vstem
          215 719 rmoveto
          -31 9 -27 18 -19 vhcurveto
          -243 -642 rlineto
          -67 callsubr
          -239 652 rlineto
          12 18 8 23 26 vvcurveto
          33 callsubr
          38 -434 -57 callsubr
          -108 435 32 callsubr
          -26 -11 -14 -19 -2 vhcurveto
          -9 hlineto
          -17 2 -13 14 27 vvcurveto
          endchar
        </CharString>
        <CharString name="Atilde">
          26 callsubr
          94 1 callsubr
          hintmask 11101000
          -102 callsubr
          -243 472 3 callsubr
          hintmask 11110000
          -66 callsubr
          hintmask 11100100
          -36 callsubr
        </CharString>
        <CharString name="B">
          24 -1 109 -87 -21 290 103 177 109 25 callsubr
          -154 174 hintmask 01110110
          62 hmoveto
          hintmask 10110101
          29 130 -1 38 hhcurveto
          191 96 65 125 77 -48 58 -100 29 hvcurveto
          hintmask 10110110
          84 28 44 54 68 vvcurveto
          108 -88 68 -168 vhcurveto
          hintmask 01101101
          -42 -142 -2 -24 hhcurveto
          165 -389 rmoveto
          1 9 17 1 18 hhcurveto
          76 25 -47 -50 hvcurveto
          hintmask 10110110
          -66 -42 -19 -54 vhcurveto
          -49 hlineto
          461 vmoveto
          1 8 17 0 17 hhcurveto
          59 25 -34 -55 -67 -39 -21 -41 hvcurveto
          -46 hlineto
          endchar
        </CharString>
        <CharString name="C">
          -1 -7 callsubr
          hstem
          39 178 vstem
          24 callsubr
          -214 91 -122 205 81 64 16 17 41 hvcurveto
          -2 callsubr
        </CharString>
        <CharString name="Ccedilla">
          -1 62 callsubr
          32 116 458 117 hstemhm
          39 178 128 112 hintmask 10111100
          24 callsubr
          -191 72 -118 162 -23 hvcurveto
          -22 -85 -22 callsubr
          32 64 4 51 14 35 14 rlinecurve
          -2 callsubr
        </CharString>
        <CharString name="D">
          97 -2 116 -93 -21 563 116 -2 9 callsubr
          206 178 hintmask 01101100
          62 hmoveto
          hintmask 10101100
          15 callsubr
          hintmask 01011100
          -74 -130 -2 -19 hhcurveto
          hintmask 10101100
          216 -114 22 callsubr
          447 77 callsubr
        </CharString>
        <CharString name="E">
          -26 callsubr
          48 callsubr
          vstem
          -79 callsubr
          endchar
        </CharString>
        <CharString name="Eacute">
          -34 callsubr
          235 48 -59 callsubr
        </CharString>
        <CharString name="Ecircumflex">
          -26 callsubr
          69 -21 251 -55 callsubr
          94 48 -75 callsubr
        </CharString>
        <CharString name="Edieresis">
          -26 callsubr
          68 151 27 callsubr
          -135 5 callsubr
          hintmask 11101000
          -79 callsubr
          hintmask 00010110
          177 145 -106 callsubr
        </CharString>
        <CharString name="Egrave">
          -34 callsubr
          293 122 -42 callsubr
        </CharString>
        <CharString name="Eth">
          97 289 118 hstem
          62 hmoveto
          15 callsubr
          -74 -130 -2 -19 hhcurveto
          -270 -70 -118 70 vlineto
          216 274 22 callsubr
          174 112 118 -112 155 77 callsubr
        </CharString>
        <CharString name="Euro">
          70 65 callsubr
          52 117 41 117 92 116 hstem
          39 225 vstem
          39 437 rmoveto
          -117 50 vlineto
          -4 -1 -9 -7 -8 1 -9 -4 vvcurveto
          -50 -117 72 hlineto
          -109 38 88 -59 144 hhcurveto
          77 41 13 11 41 hvcurveto
          -36 112 rlineto
          -11 -37 -23 -9 -47 hhcurveto
          -44 -31 19 33 -20 hvcurveto
          144 hlineto
          18 117 rlineto
          -197 hlineto
          -2 8 -1 7 7 7 1 9 3 vvcurveto
          203 hlineto
          18 117 rlineto
          -206 hlineto
          59 18 35 33 51 hhcurveto
          34 33 -11 -45 37 hvcurveto
          89 90 rlineto
          42 -38 -50 40 -106 hhcurveto
          -149 -93 -82 -126 -36 hvcurveto
          endchar
        </CharString>
        <CharString name="F">
          -49 21 -21 283 119 155 120 48 callsubr
          vstem
          46 callsubr
          283 203 hlineto
          20 119 rlineto
          -223 155 266 120 -431 hlineto
          endchar
        </CharString>
        <CharString name="G">
          61 -202 -21 216 118 458 117 hstemhm
          35 178 197 158 -142 142 hintmask 11111000
          372 -223 rmoveto
          97 41 99 51 162 vvcurveto
          319 -158 -75 vlineto
          -76 -44 -88 -53 -68 -32 90 139 143 38 86 94 43 46 -29 -37 38 vhcurveto
          77 94 rlineto
          58 -48 -78 31 -78 hhcurveto
          -213 -97 -150 -206 -210 86 -127 157 hvcurveto
          hintmask 11110100
          69 52 29 50 27 hvcurveto
          -7 vlineto
          -89 -29 -48 -85 -47 vhcurveto
          endchar
        </CharString>
        <CharString name="H">
          138 21 -21 290 122 265 -20 48 callsubr
          234 164 vstem
          461 hmoveto
          164 677 -164 -265 -234 265 -165 -677 165 290 234 hlineto
          endchar
        </CharString>
        <CharString name="I">
          -261 19 callsubr
          endchar
        </CharString>
        <CharString name="Iacute">
          -4 callsubr
          84 48 -59 callsubr
        </CharString>
        <CharString name="Icircumflex">
          -261 -3 callsubr
          89 -21 251 -15 callsubr
          -56 48 -75 callsubr
        </CharString>
        <CharString name="Idieresis">
          -261 -3 callsubr
          88 71 callsubr
          -36 147 -49 165 -48 147 hintmask 11001000
          -17 callsubr
          hintmask 00110100
          49 145 -106 callsubr
        </CharString>
        <CharString name="Igrave">
          -4 callsubr
          143 122 -42 callsubr
        </CharString>
        <CharString name="J">
          -265 -202 -21 900 -20 hstem
          58 164 vstem
          222 54 callsubr
          -164 -636 hlineto
          -48 0 -52 -101 -53 vhcurveto
          67 -111 rlineto
          112 54 86 62 150 vvcurveto
          endchar
        </CharString>
        <CharString name="K">
          88 19 callsubr
          528 hmoveto
          -164 hlineto
          -32 -144 -38 -93 -118 -57 rrcurveto
          -12 vlineto
          230 -371 rlineto
          184 hlineto
          -234 356 72 56 62 76 38 189 rlinecurve
          endchar
        </CharString>
        <CharString name="L">
          -92 0 121 556 -20 48 callsubr
          vstem
          62 hmoveto
          403 121 -238 556 49 callsubr
          endchar
        </CharString>
        <CharString name="M">
          310 12 callsubr
          80 98 457 98 vstem
          576 201 rmoveto
          14 32 36 90 20 57 -1 -67 0 -127 2 -50 6 -136 rcurveline
          155 hlineto
          -40 677 rlineto
          -139 hlineto
          -156 -390 -10 -25 -17 -47 -15 -49 rlinecurve
          -15 50 -17 47 -9 24 -156 390 rcurveline
          -142 hlineto
          -40 -677 rlineto
          152 hlineto
          5 136 rlineto
          2 49 0 127 68 vvcurveto
          23 -63 40 -103 9 -22 83 -192 rcurveline
          125 hlineto
          endchar
        </CharString>
        <CharString name="N">
          139 12 callsubr
          62 162 238 165 vstem
          -37 callsubr
          endchar
        </CharString>
        <CharString name="Ntilde">
          139 -3 callsubr
          97 1 callsubr
          62 162 238 165 hintmask 11010110
          -37 callsubr
          -282 83 -83 callsubr
        </CharString>
        <CharString name="O">
          -7 callsubr
          hstem
          10 callsubr
          vstem
          -105 callsubr
          endchar
        </CharString>
        <CharString name="OE">
          333 -6 127 -100 -21 292 4 callsubr
          9 -20 hstemhm
          37 178 207 164 hintmask 01110110
          443 hmoveto
          423 hlineto
          hintmask 10110110
          -18 callsubr
          vlineto
          20 119 rlineto
          -222 145 266 121 -424 hlineto
          hintmask 10101110
          6 -24 -29 3 -36 hhcurveto
          -205 -97 -149 -207 -212 89 -124 210 hvcurveto
          hintmask 01110110
          38 36 1 5 33 hvcurveto
          -89 111 rmoveto
          -35 callsubr
          28 27 -5 -12 28 hvcurveto
          -437 vlineto
          -3 -24 -23 -1 -21 hhcurveto
          endchar
        </CharString>
        <CharString name="Oacute">
          -62 callsubr
          17 156 -59 callsubr
        </CharString>
        <CharString name="Ocircumflex">
          -7 callsubr
          60 -21 251 -93 callsubr
          -123 156 -75 callsubr
        </CharString>
        <CharString name="Odieresis">
          -7 callsubr
          59 71 callsubr
          37 178 -50 5 callsubr
          -50 178 hintmask 11010010
          -105 callsubr
          hintmask 00101100
          -27 253 -106 callsubr
        </CharString>
        <CharString name="Ograve">
          -62 callsubr
          76 230 -42 callsubr
        </CharString>
        <CharString name="Oslash">
          -49 -21 816 -20 hstem
          -44 callsubr
          -125 31 -94 69 -56 hvcurveto
          -30 -68 139 -57 30 68 rlineto
          -3 20 21 -1 23 hhcurveto
          213 102 142 208 122 -31 96 -67 59 hvcurveto
          31 69 -140 56 -29 -65 rlineto
          3 -21 -22 2 -23 hhcurveto
          -14 -117 rmoveto
          10 9 -1 -2 9 hvcurveto
          -145 -323 rlineto
          -5 29 -2 33 36 vvcurveto
          143 37 85 87 vhcurveto
          138 -235 rmoveto
          -142 -37 -81 -86 -9 -9 0 2 -8 vhcurveto
          142 315 rlineto
          5 -28 2 -32 -34 vvcurveto
          endchar
        </CharString>
        <CharString name="Otilde">
          -7 callsubr
          65 109 -89 89 -89 109 39 callsubr
          hintmask 11010110
          -105 callsubr
          -155 188 -83 callsubr
        </CharString>
        <CharString name="P">
          -6 21 -21 259 109 202 109 31 callsubr
          259 30 hlineto
          166 103 72 142 129 -86 77 -170 hvcurveto
          hintmask 11011100
          -52 -136 -2 -20 hhcurveto
          165 -109 rmoveto
          hintmask 11101100
          72 callsubr
          26 -48 -56 vvcurveto
          -66 -39 -31 -45 vhcurveto
          -42 hlineto
          endchar
        </CharString>
        <CharString name="Q">
          154 -214 123 -123 208 575 117 hstemhm
          35 178 268 179 hintmask 10111000
          642 -37 rmoveto
          -28 -57 -51 -26 -59 hhcurveto
          -21 -20 4 10 -20 hvcurveto
          141 47 105 145 228 vvcurveto
          211 -106 132 -200 -203 -116 -149 -202 -147 79 -131 167 -10 vhcurveto
          16 108 rlineto
          -58 21 -26 42 126 vvcurveto
          138 41 87 86 109 32 -101 -136 vhcurveto
          hintmask 01111000
          -213 -82 -125 -130 -14 -20 1 3 -14 vhcurveto
          hintmask 10111000
          -29 -89 rlineto
          -87 98 114 -36 84 hhcurveto
          82 63 25 42 63 hvcurveto
          endchar
        </CharString>
        <CharString name="R">
          49 21 -21 287 103 181 108 31 callsubr
          287 17 hlineto
          69 22 -100 -187 86 hvcurveto
          177 hlineto
          -70 164 -38 106 -79 45 rrcurveto
          70 31 45 54 85 vvcurveto
          127 -86 67 -170 vhcurveto
          hintmask 11011100
          -44 -141 -2 -23 hhcurveto
          hintmask 11101100
          165 -106 rmoveto
          37 hlineto
          68 21 -42 -50 -61 -37 -28 -47 hvcurveto
          -42 hlineto
          endchar
        </CharString>
        <CharString name="S">
          -24 -6 121 451 120 hstem
          42 178 100 178 vstem
          267 686 rmoveto
          -119 -106 -75 -119 -108 68 -55 116 -48 hvcurveto
          59 -24 35 -19 -48 vvcurveto
          -48 -25 -27 -56 -53 -91 56 13 -19 vhcurveto
          -54 -118 rlineto
          -29 48 86 -43 104 hhcurveto
          146 92 98 123 102 -52 48 -107 45 hvcurveto
          -85 36 -31 25 -3 44 rrcurveto
          29 23 22 46 51 63 -38 -17 31 vhcurveto
          58 110 rlineto
          31 -45 -84 34 -96 hhcurveto
          endchar
        </CharString>
        <CharString name="T">
          -43 21 -21 556 121 hstem
          163 165 vstem
          2 54 callsubr
          -121 161 -556 165 556 156 vlineto
          21 121 rlineto
          endchar
        </CharString>
        <CharString name="Thorn">
          -6 21 -21 139 114 192 114 118 -20 48 callsubr
          122 178 vstem
          46 callsubr
          139 30 hlineto
          167 103 72 142 130 -87 76 -170 hvcurveto
          -43 118 49 callsubr
          165 -234 rmoveto
          72 callsubr
          22 -52 -47 vvcurveto
          -58 -35 -34 -45 vhcurveto
          -42 hlineto
          endchar
        </CharString>
        <CharString name="U">
          74 callsubr
          hstem
          52 164 235 165 vstem
          -96 callsubr
          endchar
        </CharString>
        <CharString name="Uacute">
          -49 callsubr
          114 48 -59 callsubr
        </CharString>
        <CharString name="Ucircumflex">
          74 callsubr
          89 -21 251 -81 callsubr
          -26 48 -75 callsubr
        </CharString>
        <CharString name="Udieresis">
          74 callsubr
          88 71 callsubr
          52 164 -63 5 callsubr
          -64 165 hintmask 11010010
          -96 callsubr
          hintmask 00101100
          84 145 -106 callsubr
        </CharString>
        <CharString name="Ugrave">
          -49 callsubr
          173 122 -42 callsubr
        </CharString>
        <CharString name="V">
          92 12 callsubr
          644 54 callsubr
          -168 hlineto
          -92 -271 -29 -83 -20 -71 -13 -51 rlinecurve
          -13 51 -20 74 -27 81 -90 270 rcurveline
          -174 hlineto
          253 -677 rlineto
          140 hlineto
          endchar
        </CharString>
        <CharString name="W">
          362 12 callsubr
          591 hmoveto
          133 hlineto
          188 677 rlineto
          -166 hlineto
          -63 -256 -19 -76 -10 -67 -6 -48 rlinecurve
          -11 48 -11 69 -22 73 -78 257 rcurveline
          -134 hlineto
          -76 -255 -18 -61 -16 -78 -11 -49 rlinecurve
          -8 49 -14 80 -15 60 -64 254 rcurveline
          -164 hlineto
          188 -677 rlineto
          133 hlineto
          95 306 15 50 14 80 6 27 rlinecurve
          7 -26 12 -70 18 -58 rrcurveto
          endchar
        </CharString>
        <CharString name="X">
          85 12 callsubr
          182 hmoveto
          112 200 23 43 9 -16 8 -17 7 -10 rlinecurve
          112 -200 rlineto
          182 hlineto
          -210 354 191 323 rlineto
          -180 hlineto
          -96 -172 -7 -11 -7 -15 -9 -15 rlinecurve
          -9 16 -8 17 -5 9 -95 171 rcurveline
          -180 hlineto
          190 -322 -210 -355 rlineto
          endchar
        </CharString>
        <CharString name="Y">
          39 12 callsubr
          209 164 vstem
          209 -43 callsubr
          endchar
        </CharString>
        <CharString name="Yacute">
          24 -3 callsubr
          89 -21 247 -20 hstemhm
          201 164 hintmask 11001000
          201 -43 callsubr
          hintmask 00110000
          89 465 -59 callsubr
        </CharString>
        <CharString name="Ydieresis">
          24 -3 callsubr
          88 71 callsubr
          102 147 -48 164 -48 147 hintmask 11001000
          201 -43 callsubr
          hintmask 00110100
          48 562 -106 callsubr
        </CharString>
        <CharString name="Z">
          -2 0 137 403 137 hstem
          520 hmoveto
          137 -215 vlineto
          -24 -23 -1 -1 -21 hvcurveto
          270 429 rlineto
          113 -474 vlineto
          25 -137 rlineto
          173 hlineto
          26 28 1 1 25 hvcurveto
          -274 -430 rlineto
          -112 vlineto
          endchar
        </CharString>
        <CharString name="a">
          -40 callsubr
          -28 callsubr
          hintmask 10110100
          -98 callsubr
          hintmask 01110100
          -63 callsubr
          hintmask 10111000
          -95 callsubr
          endchar
        </CharString>
        <CharString name="aacute">
          -80 callsubr
          39 447 -56 callsubr
        </CharString>
        <CharString name="acircumflex">
          -40 callsubr
          69 -21 271 -99 callsubr
          -98 447 -74 callsubr
        </CharString>
        <CharString name="acute">
          73 callsubr
          206 557 -56 callsubr
        </CharString>
        <CharString name="adieresis">
          -40 callsubr
          81 71 callsubr
          13 callsubr
          -89 147 66 158 -156 147 -111 120 hintmask 1011100010000000
          -98 callsubr
          hintmask 0111100010000000
          -63 callsubr
          hintmask 1011101000000000
          -95 callsubr
          hintmask 1011010100000000
          7 557 -106 callsubr
        </CharString>
        <CharString name="ae">
          212 -6 114 -96 -21 184 101 117 116 hstemhm
          13 callsubr
          117 164 53 callsubr
          hintmask 10111110
          278 509 rmoveto
          -76 callsubr
          65 41 32 54 24 hvcurveto
          hintmask 01111110
          -56 36 60 -33 94 hhcurveto
          107 90 45 0 hvcurveto
          -30 104 rlineto
          hintmask 10111110
          0 -84 -32 -58 -49 -68 callsubr
          -51 -47 -12 -24 -39 vhcurveto
          16 -38 -52 17 -62 hhcurveto
          -32 -399 -52 callsubr
          23 20 -7 -11 20 hvcurveto
          -18 -34 -11 -51 -39 vvcurveto
          -11 1 -16 1 -12 vhcurveto
          -59 -11 -26 -43 -31 hhcurveto
          301 289 rmoveto
          21 17 -17 -25 -32 -31 -47 -78 -19 callsubr
          endchar
        </CharString>
        <CharString name="agrave">
          -80 callsubr
          108 518 -41 callsubr
        </CharString>
        <CharString name="ampersand">
          53 -6 124 369 115 hstemhm
          35 155 -69 164 hintmask 11010000
          483 530 rmoveto
          58 -55 -58 14 -67 hhcurveto
          -120 -62 -67 -87 -29 8 -29 16 -30 hvcurveto
          hintmask 11100000
          -53 -35 -57 -61 -92 vvcurveto
          -104 83 -74 121 84 63 30 45 50 vhcurveto
          90 -74 79 104 -86 74 21 34 15 34 14 31 rlinecurve
          -116 46 -7 -20 -10 -22 -12 -22 rlinecurve
          hintmask 11010000
          -85 74 -54 59 61 vvcurveto
          24 12 15 26 31 28 -26 -19 20 vhcurveto
          -60 -296 rmoveto
          -17 -22 -25 -11 -26 hhcurveto
          hintmask 11100000
          -52 -27 30 41 32 11 25 14 18 hvcurveto
          35 -39 44 -39 48 -40 rrcurveto
          endchar
        </CharString>
        <CharString name="apostrophe">
          -334 429 30 callsubr
          90 153 vstem
          70 700 -48 callsubr
        </CharString>
        <CharString name="aring">
          -40 callsubr
          34 68 83 69 hstemhm
          13 callsubr
          -27 74 69 74 -66 158 47 callsubr
          hintmask 1011110001000000
          -98 callsubr
          hintmask 0111110001000000
          -63 callsubr
          hintmask 1011110010000000
          -95 callsubr
          hintmask 1011101100000000
          -78 543 -23 callsubr
        </CharString>
        <CharString name="asciicircum">
          13 306 -21 392 -20 hstem
          520 310 rmoveto
          -179 367 rlineto
          -120 hlineto
          -179 -367 137 -25 70 153 12 26 13 34 7 20 rlinecurve
          7 -20 13 -35 12 -25 70 -152 rcurveline
          endchar
        </CharString>
        <CharString name="asciitilde">
          -8 235 111 -51 51 -51 111 hstemhm
          hintmask 01000000
          183 406 rmoveto
          -92 -49 -96 0 hvcurveto
          54 -61 rlineto
          32 30 16 14 41 hhcurveto
          hintmask 10000000
          62 36 -60 77 hhcurveto
          93 48 96 0 hvcurveto
          -54 61 rlineto
          -32 -29 -17 -14 -41 hhcurveto
          hintmask 00100000
          -61 -36 60 -78 hhcurveto
          endchar
        </CharString>
        <CharString name="asterisk">
          -73 327 -21 371 -20 hstem
          172 54 callsubr
          12 -107 -99 46 -43 -125 110 -24 -76 -82 109 -79 53 94 54 -94 109 79 -76 82 110 24 -43 125 -100 -46 13 107 rlineto
          endchar
        </CharString>
        <CharString name="at">
          407 -195 113 76 114 258 109 77 113 hstem
          44 119 85 158 115 149 125 119 vstem
          670 449 rmoveto
          -7 -102 26 -78 hhcurveto
          -140 -95 -104 -145 -140 57 -92 123 67 41 32 69 25 hvcurveto
          -75 28 57 -26 67 hhcurveto
          112 89 132 158 246 -172 135 -215 -264 -219 -164 -302 -303 194 -91 186 108 113 44 10 18 hvcurveto
          -37 97 rlineto
          -8 -20 -96 -30 -79 hhcurveto
          -201 -67 133 152 235 159 114 194 164 115 -92 -182 -75 -32 -95 -48 -30 -15 33 76 hvcurveto
          -218 -114 rmoveto
          -42 -4 63 71 75 19 54 56 15 17 -6 -2 8 hvcurveto
          -108 vlineto
          -79 -30 -68 -39 vhcurveto
          endchar
        </CharString>
        <CharString name="atilde">
          -40 callsubr
          71 109 -89 89 -89 109 -28 callsubr
          hintmask 1011001010000000
          -98 callsubr
          hintmask 0111001010000000
          -63 callsubr
          hintmask 1010101100000000
          -95 callsubr
          -125 476 3 callsubr
          hintmask 1011001100000000
          -66 callsubr
          hintmask 1010011100000000
          -36 callsubr
        </CharString>
        <CharString name="b">
          -16 -6 45 callsubr
          29 callsubr
          124 168 vstem
          57 23 rmoveto
          -4 11 105 -25 83 hhcurveto
          149 102 113 152 151 -62 99 -126 -45 -34 -18 -32 -25 hvcurveto
          266 vlineto
          64 callsubr
          231 -305 rmoveto
          48 3 -69 55 callsubr
          107 vlineto
          89 30 80 43 vhcurveto
          endchar
        </CharString>
        <CharString name="backslash">
          -103 -105 -21 855 -20 hstem
          147 729 rmoveto
          49 callsubr
          318 -855 rlineto
          165 hlineto
          endchar
        </CharString>
        <CharString name="bar">
          51 callsubr
          92 730 rmoveto
          -856 155 856 vlineto
          endchar
        </CharString>
        <CharString name="braceleft">
          68 callsubr
          52 229 -173 160 -146 146 hintmask 11010000
          108 589 rmoveto
          hintmask 11001000
          -72 14 -52 -59 vvcurveto
          hintmask 11100000
          -52 -23 -36 -47 -10 vhcurveto
          -107 vlineto
          hintmask 11001000
          47 -10 23 -35 -52 vvcurveto
          hintmask 11010000
          -59 -14 -52 -72 vvcurveto
          -69 43 -66 118 34 41 3 13 46 vhcurveto
          -27 98 rlineto
          -4 -11 -20 -4 -17 hhcurveto
          -32 -15 20 24 hvcurveto
          hintmask 11100000
          60 13 42 52 vvcurveto
          78 -25 49 -64 37 vhcurveto
          64 37 25 50 79 vvcurveto
          hintmask 11010000
          52 -13 42 60 vvcurveto
          24 15 20 32 17 20 -5 -3 11 vhcurveto
          27 98 rlineto
          13 -46 -41 3 -34 hhcurveto
          -118 -43 -66 -69 hvcurveto
          endchar
        </CharString>
        <CharString name="braceright">
          68 callsubr
          121 159 -159 229 -216 160 hintmask 11001000
          294 589 rmoveto
          69 -43 66 -118 -33 -42 -3 -13 -46 vhcurveto
          27 -98 rlineto
          3 11 20 5 17 hhcurveto
          32 15 -20 -24 hvcurveto
          hintmask 11100000
          -60 -13 -42 -52 vvcurveto
          -79 25 -50 64 -37 vhcurveto
          -64 -37 -25 -49 -78 vvcurveto
          hintmask 11001000
          -52 13 -42 -60 vvcurveto
          -24 -15 -20 -32 -17 -20 4 4 -11 vhcurveto
          -27 -98 rlineto
          -13 46 42 -3 33 hhcurveto
          118 43 66 69 hvcurveto
          hintmask 11100000
          72 -14 52 59 vvcurveto
          hintmask 11010000
          52 23 35 47 10 vhcurveto
          107 vlineto
          hintmask 11100000
          -47 10 -23 36 52 vvcurveto
          hintmask 11001000
          59 14 52 72 vvcurveto
          endchar
        </CharString>
        <CharString name="bracketleft">
          67 callsubr
          72 161 -161 288 hintmask 11010000
          72 720 rmoveto
          -906 288 105 vlineto
          hintmask 11100000
          -127 696 hlineto
          127 105 hlineto
          endchar
        </CharString>
        <CharString name="bracketright">
          67 callsubr
          41 288 -160 160 hintmask 11100000
          329 720 rmoveto
          -288 -105 hlineto
          hintmask 11010000
          128 -696 hlineto
          hintmask 11100000
          -128 -105 288 hlineto
          endchar
        </CharString>
        <CharString name="brokenbar">
          51 callsubr
          247 353 rmoveto
          377 -155 -377 vlineto
          155 -479 rmoveto
          376 -155 -376 vlineto
          endchar
        </CharString>
        <CharString name="bullet">
          -251 209 214 hstem
          42 214 vstem
          42 316 rmoveto
          -65 42 -42 65 65 42 42 65 65 -42 42 -65 -65 -42 -42 -65 vhcurveto
          endchar
        </CharString>
        <CharString name="c">
          -131 -9 119 284 118 hstem
          13 callsubr
          vstem
          28 callsubr
          -147 68 -99 163 89 59 33 1 1 hvcurveto
          -1 callsubr
        </CharString>
        <CharString name="ccedilla">
          -131 62 callsubr
          28 119 284 118 hstemhm
          13 callsubr
          76 112 hintmask 10111100
          28 callsubr
          -128 51 -91 120 -22 hvcurveto
          -21 -83 -22 callsubr
          30 66 7 43 24 1 1 rlinecurve
          -1 callsubr
        </CharString>
        <CharString name="cedilla">
          -58 62 callsubr
          -199 251 hstemhm
          246 112 hintmask 00110000
          178 15 rmoveto
          -26 -102 rlineto
          42 52 -13 -27 hvcurveto
          hintmask 10010000
          34 callsubr
          vhcurveto
          0 callsubr
          hintmask 01010000
          56 -41 28 -52 5 vhcurveto
          hintmask 00110000
          12 52 rlineto
          endchar
        </CharString>
        <CharString name="cent">
          -44 -21 -21 696 -20 hstem
          47 152 47 115 vstem
          361 -42 rmoveto
          119 vlineto
          58 7 37 14 18 10 -34 89 rcurveline
          -18 -7 -24 -8 -37 -4 rrcurveto
          282 vlineto
          16 -6 14 -10 15 -16 72 71 rcurveline
          -32 40 -41 19 -44 8 rrcurveto
          88 -115 -87 vlineto
          -117 -18 -82 -88 -153 vvcurveto
          -131 58 -90 141 -13 vhcurveto
          -116 vlineto
          -47 367 rmoveto
          80 19 36 28 15 vhcurveto
          -264 vlineto
          -29 18 -18 38 77 vvcurveto
          endchar
        </CharString>
        <CharString name="circumflex">
          -58 578 -21 271 -20 hstem
          103 557 -74 callsubr
        </CharString>
        <CharString name="colon">
          -248 -10 179 163 180 hstem
          67 177 vstem
          157 169 -31 callsubr
          343 vmoveto
          -58 -32 -41 -51 -48 32 -40 56 58 31 40 52 51 -31 37 -56 hvcurveto
          endchar
        </CharString>
        <CharString name="comma">
          -251 -154 30 callsubr
          93 153 vstem
          73 117 -48 callsubr
        </CharString>
        <CharString name="copyright">
          232 -14 98 58 116 172 115 51 97 hstem
          37 109 80 153 257 108 vstem
          37 340 rmoveto
          -207 143 -147 207 207 150 146 208 207 -143 146 -207 -207 -150 -146 -207 vhcurveto
          109 5 rmoveto
          143 101 108 144 144 101 -120 -142 -142 -102 -108 -144 -143 -101 120 141 vhcurveto
          381 153 rmoveto
          27 -27 -35 20 -60 hhcurveto
          -108 -71 -76 -136 -117 50 -74 118 74 44 23 2 3 hvcurveto
          -28 103 rlineto
          -4 -8 -20 -8 -26 hhcurveto
          -33 -21 24 63 48 9 37 30 19 9 -7 -4 9 hvcurveto
          endchar
        </CharString>
        <CharString name="currency">
          71 -10 -21 83 109 247 106 84 -20 hstem
          80 116 230 116 vstem
          80 283 rmoveto
          -50 14 -46 26 -38 vhcurveto
          -98 -85 95 -95 93 104 rlineto
          -13 29 34 -8 36 hhcurveto
          37 34 8 13 31 hvcurveto
          93 -104 95 95 -97 84 rlineto
          25 38 15 45 52 vvcurveto
          52 -15 46 -25 37 vhcurveto
          96 85 -94 95 -92 -104 rlineto
          13 -30 -34 7 -37 hhcurveto
          -37 -34 -7 -14 -30 hvcurveto
          -93 105 -94 -95 96 -85 rlineto
          -25 -38 -14 -46 -51 vvcurveto
          116 5 rmoveto
          70 48 50 66 67 49 -56 -70 -69 -49 -52 -67 -66 -48 56 71 vhcurveto
          endchar
        </CharString>
        <CharString name="d">
          -40 callsubr
          215 -20 hstemhm
          -9 callsubr
          hintmask 10111100
          532 32 rmoveto
          -1 1 -54 50 158 vvcurveto
          457 vlineto
          -158 26 rlineto
          -218 vlineto
          1 -14 -15 2 -12 -88 callsubr
          hintmask 01111100
          12 -65 35 -34 1 -1 rrcurveto
          hintmask 10111100
          -159 118 -94 callsubr
          endchar
        </CharString>
        <CharString name="degree">
          -239 471 77 95 78 hstem
          32 84 80 83 vstem
          32 596 rmoveto
          -71 47 -54 75 72 53 50 75 72 -47 53 -75 -72 -53 -49 -76 vhcurveto
          84 1 rmoveto
          31 15 15 24 25 16 -18 -29 -31 -16 -17 -25 -20 -19 17 32 vhcurveto
          endchar
        </CharString>
        <CharString name="dieresis">
          -58 571 151 hstem
          61 5 callsubr
          vstem
          208 648 -106 callsubr
        </CharString>
        <CharString name="divide">
          -45 64 142 36 116 36 141 hstem
          180 138 vstem
          318 466 rmoveto
          41 -24 28 -43 -47 -24 -31 -41 -38 24 -31 43 47 24 31 41 vhcurveto
          -266 -224 rmoveto
          400 116 -400 hlineto
          266 -222 rmoveto
          41 -24 29 -43 -47 -24 -32 -41 -37 24 -32 43 47 24 32 40 vhcurveto
          endchar
        </CharString>
        <CharString name="dollar">
          9 -83 213 370 194 hstemhm
          66 171 -24 127 -5 171 hintmask 11010000
          213 -83 rmoveto
          127 98 hlineto
          hintmask 11101000
          107 20 59 77 81 vvcurveto
          90 -47 54 -105 41 vhcurveto
          -83 32 -34 19 32 vvcurveto
          27 22 12 38 54 61 -33 -20 36 vhcurveto
          56 108 rlineto
          hintmask 11010000
          -34 23 -60 26 -70 10 rrcurveto
          80 -127 -82 vlineto
          hintmask 11101000
          -84 -19 -63 -58 -79 vvcurveto
          -99 62 -55 114 -43 vhcurveto
          59 -22 34 -14 -38 vvcurveto
          -30 -21 -25 -51 -56 -87 52 16 -24 vhcurveto
          -54 -117 rlineto
          hintmask 11010000
          36 -22 59 -31 76 -12 rrcurveto
          endchar
        </CharString>
        <CharString name="dotlessi">
          2 callsubr
          hstem
          42 58 callsubr
          -92 callsubr
          endchar
        </CharString>
        <CharString name="e">
          -14 callsubr
          hstem
          27 163 53 callsubr
          vstem
          -104 callsubr
          endchar
        </CharString>
        <CharString name="eacute">
          -70 callsubr
          2 158 -56 callsubr
        </CharString>
        <CharString name="ecircumflex">
          -14 callsubr
          66 -21 271 -97 callsubr
          -135 158 -74 callsubr
        </CharString>
        <CharString name="edieresis">
          -14 callsubr
          78 71 callsubr
          27 163 -106 5 callsubr
          -147 157 hintmask 11101001
          -104 callsubr
          hintmask 00010110
          -30 268 -106 callsubr
        </CharString>
        <CharString name="egrave">
          -70 callsubr
          72 229 -41 callsubr
        </CharString>
        <CharString name="eight">
          5 -9 104 446 104 hstemhm
          42 168 -148 161 103 162 -146 170 hintmask 11101000
          277 -9 rmoveto
          hintmask 11011000
          120 115 59 123 65 -40 63 -82 44 hvcurveto
          61 36 37 45 61 vvcurveto
          108 -105 50 -101 vhcurveto
          hintmask 11100100
          -98 -122 -49 -113 -66 45 -47 59 -30 hvcurveto
          -81 -49 -43 -55 -69 vvcurveto
          -121 120 -55 115 vhcurveto
          -67 170 rmoveto
          37 23 36 45 30 vhcurveto
          36 -30 28 -37 -38 vvcurveto
          -35 -23 -29 -37 -42 -30 25 41 vhcurveto
          116 331 rmoveto
          -33 -16 -29 -32 -22 vhcurveto
          -34 21 -21 30 33 vvcurveto
          38 31 11 22 vhcurveto
          hintmask 11011000
          23 27 -12 -37 hvcurveto
          endchar
        </CharString>
        <CharString name="emdash">
          148 57 callsubr
          261 vmoveto
          698 111 -698 hlineto
          endchar
        </CharString>
        <CharString name="endash">
          -50 57 callsubr
          261 61 callsubr
        </CharString>
        <CharString name="equal">
          -55 155 116 58 116 hstem
          62 329 rmoveto
          371 116 -371 hlineto
          -290 vmoveto
          371 116 -371 hlineto
          endchar
        </CharString>
        <CharString name="eth">
          -38 -10 119 279 118 246 -20 hstem
          -6 callsubr
          vstem
          492 263 rmoveto
          115 -19 110 -51 93 vhcurveto
          72 15 -23 90 -100 -30 -30 36 -36 33 -44 27 rlinecurve
          -77 -93 51 -36 -57 -10 23 -90 100 28 9 -19 9 -20 7 -22 rlinecurve
          9 -20 -24 7 -28 hhcurveto
          -147 -80 -113 -149 -155 69 -99 160 158 78 114 159 hvcurveto
          -237 125 rmoveto
          57 13 -63 -80 -73 -11 -63 -49 -57 -13 67 79 75 11 58 49 hvcurveto
          endchar
        </CharString>
        <CharString name="exclam">
          -210 -10 179 508 -20 hstem
          100 140 -114 114 vstem
          167 169 -31 callsubr
          -70 51 rmoveto
          145 hlineto
          29 457 rlineto
          -174 hlineto
          endchar
        </CharString>
        <CharString name="exclamdown">
          -221 -182 -20 528 179 hstem
          46 140 -114 114 vstem
          113 326 rmoveto
          56 31 37 51 51 -31 40 -58 -56 -32 -40 -47 -52 32 -40 58 hvcurveto
          -70 -508 rmoveto
          174 hlineto
          -29 457 rlineto
          -145 hlineto
          endchar
        </CharString>
        <CharString name="f">
          -181 -202 -21 605 120 102 118 hstemhm
          93 135 -135 158 hintmask 11101000
          402 659 rmoveto
          36 -32 -39 27 -73 hhcurveto
          -104 -74 -57 -98 -24 5 -21 8 -20 hvcurveto
          -77 -120 77 -368 hlineto
          -50 -38 -37 -63 -33 vhcurveto
          72 -117 rlineto
          84 40 103 47 153 vvcurveto
          365 89 vlineto
          20 120 rlineto
          -128 hlineto
          hintmask 11110000
          -3 14 -1 14 14 vvcurveto
          38 25 22 30 20 16 -15 -10 7 vhcurveto
          endchar
        </CharString>
        <CharString name="five">
          -27 -9 131 157 132 94 135 hstem
          312 171 vstem
          131 259 rmoveto
          7 17 32 13 48 hhcurveto
          51 33 -23 -45 -59 -33 -30 -45 -46 -60 29 19 -39 hvcurveto
          -52 -121 rlineto
          -29 63 91 -29 62 hhcurveto
          170 60 111 102 107 -61 100 -133 -31 -22 -5 -4 -17 hvcurveto
          14 103 rlineto
          201 hlineto
          24 135 rlineto
          -361 hlineto
          -36 -329 rlineto
          endchar
        </CharString>
        <CharString name="four">
          -22 21 -21 152 131 357 -20 hstem
          271 58 callsubr
          271 hmoveto
          158 152 68 hlineto
          23 131 rlineto
          -91 167 hlineto
          64 callsubr
          -140 -83 vlineto
          149 357 rlineto
          -158 hlineto
          -167 -400 rlineto
          -88 259 vlineto
          endchar
        </CharString>
        <CharString name="fraction">
          -199 13 -21 602 -20 hstem
          -31 -8 -11 callsubr
          endchar
        </CharString>
        <CharString name="g">
          -11 -215 132 77 45 callsubr
          hstemhm
          13 callsubr
          124 157 -106 106 -106 142 hintmask 11110010
          98 -173 rmoveto
          -26 62 70 -16 61 hhcurveto
          135 86 79 139 hvcurveto
          hintmask 11110100
          86 -37 57 1 85 vhcurveto
          4 249 rlineto
          5 -19 -103 24 -80 hhcurveto
          -76 callsubr
          70 43 35 59 23 hvcurveto
          9 -23 5 -29 -30 8 callsubr
          -58 vhcurveto
          111 161 -52 callsubr
          hvcurveto
          hintmask 11111000
          12 20 -4 -4 9 hvcurveto
          -109 vlineto
          -87 -31 -79 -42 vhcurveto
          endchar
        </CharString>
        <CharString name="germandbls">
          73 -203 -21 217 124 496 125 hstemhm
          80 158 49 157 -49 164 -124 166 hintmask 11110100
          238 486 rmoveto
          76 29 51 59 38 31 -17 -36 vhcurveto
          hintmask 11111000
          -68 -108 -22 -92 vvcurveto
          hintmask 11110010
          -130 148 4 -84 vvcurveto
          -33 -18 -18 -40 -23 -26 12 7 -15 vhcurveto
          -48 -106 rlineto
          -1 2 57 -36 83 hhcurveto
          122 72 78 94 hvcurveto
          hintmask 11111000
          171 -157 -7 77 vvcurveto
          hintmask 11110100
          59 115 5 115 vvcurveto
          72 -56 81 -145 -175 -103 -110 -134 vhcurveto
          -480 vlineto
          -63 -27 -53 -73 -38 vhcurveto
          53 -84 rlineto
          107 43 98 51 155 vvcurveto
          endchar
        </CharString>
        <CharString name="grave">
          73 callsubr
          313 628 -41 callsubr
        </CharString>
        <CharString name="greater">
          -102 96 -21 450 -20 hstem
          85 75 rmoveto
          341 166 rlineto
          119 vlineto
          -339 165 -53 -123 151 -69 31 -16 39 -14 8 -2 rlinecurve
          -20 -7 -33 -14 -25 -11 -153 -72 rcurveline
          endchar
        </CharString>
        <CharString name="guillemotleft">
          55 43 callsubr
          338 82 rmoveto
          41 callsubr
          -66 74 rlineto
          23 callsubr
          306 75 rmoveto
          41 callsubr
          -65 74 rlineto
          0 -149 -126 -81 -111 vhcurveto
          81 -112 149 -126 0 vvcurveto
          endchar
        </CharString>
        <CharString name="guillemotright">
          55 43 callsubr
          268 408 35 callsubr
          65 -21 callsubr
          -306 -74 -12 callsubr
        </CharString>
        <CharString name="guilsinglleft">
          -185 43 callsubr
          272 482 rmoveto
          23 callsubr
          66 75 41 callsubr
          rlineto
          endchar
        </CharString>
        <CharString name="guilsinglright">
          -185 43 callsubr
          27 408 -12 callsubr
        </CharString>
        <CharString name="h">
          -8 44 callsubr
          29 callsubr
          116 159 vstem
          215 725 rmoveto
          64 callsubr
          -698 158 264 vlineto
          78 41 48 35 31 9 78 callsubr
          159 335 vlineto
          106 -40 68 -104 -49 -47 -14 -31 -35 vhcurveto
          endchar
        </CharString>
        <CharString name="hyphen">
          16 callsubr
        </CharString>
        <CharString name="i">
          -265 -4 119 387 -20 82 179 hstem
          52 58 callsubr
          179 -33 callsubr
          -3 -13 -69 callsubr
          -46 747 rmoveto
          -60 38 callsubr
          -55 hvcurveto
          endchar
        </CharString>
        <CharString name="iacute">
          -38 callsubr
          -59 544 rmoveto
          0 98 82 85 105 vhcurveto
          -105 98 -145 -214 rlineto
          endchar
        </CharString>
        <CharString name="icircumflex">
          2 callsubr
          76 -21 257 -64 callsubr
          -47 624 rmoveto
          45 -36 39 -25 37 -22 62 73 rcurveline
          -183 184 -183 -184 62 -73 38 22 38 25 45 36 rlinecurve
          endchar
        </CharString>
        <CharString name="idieresis">
          2 callsubr
          89 150 hstemhm
          -37 146 -67 158 -64 146 -82 callsubr
          hintmask 00110100
          -60 651 rmoveto
          40 -26 34 -46 -49 -25 -34 -43 -40 25 -33 46 49 26 33 43 vhcurveto
          173 hmoveto
          40 -25 34 -46 -49 -26 -34 -43 -40 26 -33 46 49 25 33 43 vhcurveto
          endchar
        </CharString>
        <CharString name="igrave">
          -38 callsubr
          19 615 rmoveto
          -146 214 -104 -98 rlineto
          84 -105 99 -82 0 vvcurveto
          endchar
        </CharString>
        <CharString name="j">
          -277 -202 -21 725 62 0 179 hstemhm
          60 157 hintmask 11010000
          60 41 rmoveto
          -59 -14 -50 -86 -47 vhcurveto
          66 -108 rlineto
          111 54 80 63 149 vvcurveto
          459 -157 vlineto
          hintmask 10110000
          80 241 rmoveto
          -59 38 callsubr
          -56 hvcurveto
          endchar
        </CharString>
        <CharString name="k">
          -13 21 -21 393 116 29 callsubr
          121 157 vstem
          57 698 rmoveto
          -698 158 310 vlineto
          15 18 68 62 24 17 -17 -31 -57 -78 -20 -19 -3 vhcurveto
          1 -15 13 -70 37 -82 58 -98 rlinecurve
          180 hlineto
          -140 223 rlineto
          0 105 34 119 vvcurveto
          83 -64 50 -83 -66 -40 -23 -23 -25 vhcurveto
          262 vlineto
          endchar
        </CharString>
        <CharString name="l">
          -229 -4 119 610 -20 hstem
          52 58 callsubr
          184 -4 rmoveto
          58 52 17 9 20 hvcurveto
          -15 99 rlineto
          -3 -15 -20 -3 -14 hhcurveto
          -30 -10 11 32 hvcurveto
          567 vlineto
          64 callsubr
          -574 vlineto
          -71 40 -57 92 vhcurveto
          endchar
        </CharString>
        <CharString name="less">
          -102 96 -21 450 -20 hstem
          416 197 rmoveto
          -153 72 -27 12 -34 13 -19 7 rlinecurve
          8 2 40 15 32 15 151 69 rcurveline
          -53 123 -339 -165 rlineto
          -119 vlineto
          341 -166 rlineto
          endchar
        </CharString>
        <CharString name="logicalnot">
          -26 168 243 -116 116 hstemhm
          368 114 hintmask 01100000
          42 295 rmoveto
          326 hlineto
          hintmask 10100000
          -127 114 243 -440 vlineto
          endchar
        </CharString>
        <CharString name="m">
          248 44 callsubr
          hstem
          72 158 99 159 99 158 cntrmask 00111000
          745 hmoveto
          335 vlineto
          105 -33 69 -103 -58 -49 -20 -48 -35 vhcurveto
          44 -22 -36 24 -58 hhcurveto
          -69 -60 -29 -62 -32 hvcurveto
          -15 59 -31 32 -29 callsubr
          259 vlineto
          80 33 51 33 29 4 78 callsubr
          159 264 vlineto
          76 34 50 32 28 5 78 callsubr
          vlineto
          endchar
        </CharString>
        <CharString name="macron">
          -58 572 111 hstem
          73 572 rmoveto
          331 111 -331 hlineto
          endchar
        </CharString>
        <CharString name="minus">
          -107 242 116 hstem
          30 242 rmoveto
          364 116 -364 hlineto
          endchar
        </CharString>
        <CharString name="multiply">
          -27 108 -21 418 -20 hstem
          56 418 rmoveto
          118 -119 -122 -122 90 -90 123 122 119 -119 85 84 47 callsubr
          121 121 -89 90 -122 -121 -118 118 rlineto
          endchar
        </CharString>
        <CharString name="n">
          7 44 callsubr
          hstem
          72 158 116 159 vstem
          -32 callsubr
          endchar
        </CharString>
        <CharString name="nine">
          -4 -9 120 114 109 202 108 hstem
          27 162 150 171 vstem
          77 20 rmoveto
          -16 35 59 -13 49 hhcurveto
          194 96 158 171 189 -75 135 -167 -148 -93 -88 -123 -142 84 -66 109 51 40 22 21 27 hvcurveto
          -92 -8 -30 -65 -74 hhcurveto
          -35 -40 10 11 -32 hvcurveto
          143 202 rmoveto
          -45 -28 31 69 55 20 47 49 50 26 -45 -123 5 hvcurveto
          -13 -16 -30 -21 -31 hhcurveto
          endchar
        </CharString>
        <CharString name="ntilde">
          7 44 callsubr
          71 1 callsubr
          72 158 116 159 hintmask 11010110
          -32 callsubr
          -176 586 -83 callsubr
        </CharString>
        <CharString name="numbersign">
          53 0 237 -102 102 133 102 -102 223 hstemhm
          hintmask 10010000
          382 593 rmoveto
          hintmask 10100000
          -15 -121 rlineto
          -101 hlineto
          hintmask 10010000
          16 121 rlineto
          -103 hlineto
          hintmask 10100000
          -15 -121 rlineto
          -96 hlineto
          -13 -102 rlineto
          96 hlineto
          -17 -133 rlineto
          -89 hlineto
          hintmask 01100000
          -13 -102 rlineto
          89 37 callsubr
          101 37 callsubr
          99 hlineto
          13 102 rlineto
          -99 hlineto
          17 133 rlineto
          92 hlineto
          13 102 rlineto
          -92 hlineto
          hintmask 10010000
          16 121 rlineto
          -232 -223 rmoveto
          101 hlineto
          -17 -133 rlineto
          -101 hlineto
          endchar
        </CharString>
        <CharString name="o">
          -10 callsubr
          hstem
          -6 callsubr
          vstem
          -103 callsubr
          endchar
        </CharString>
        <CharString name="oacute">
          -10 callsubr
          66 -21 285 -90 callsubr
          8 164 -56 callsubr
        </CharString>
        <CharString name="ocircumflex">
          -10 callsubr
          66 -21 271 -90 callsubr
          -129 164 -74 callsubr
        </CharString>
        <CharString name="odieresis">
          -10 callsubr
          78 71 callsubr
          13 callsubr
          -111 5 callsubr
          -121 167 hintmask 11010010
          -103 callsubr
          hintmask 00101100
          -24 274 -106 callsubr
        </CharString>
        <CharString name="oe">
          231 -10 118 -96 -21 184 101 117 119 hstemhm
          -6 callsubr
          53 callsubr
          hintmask 10111110
          -72 callsubr
          63 49 21 33 36 hvcurveto
          hintmask 01111110
          -33 34 50 -20 69 hhcurveto
          106 91 45 0 hvcurveto
          -30 104 rlineto
          hintmask 10111110
          -77 callsubr
          -64 -56 -21 -39 -42 vhcurveto
          37 -35 -51 23 -71 hhcurveto
          -85 callsubr
          308 6 -58 callsubr
          endchar
        </CharString>
        <CharString name="ograve">
          -10 callsubr
          66 -21 285 -90 callsubr
          77 235 -41 callsubr
        </CharString>
        <CharString name="one">
          -129 21 -21 640 -20 hstem
          171 58 callsubr
          207 640 rmoveto
          -65 -69 -74 -35 -68 -29 55 -102 rcurveline
          42 14 40 23 34 26 rrcurveto
          -468 158 640 vlineto
          endchar
        </CharString>
        <CharString name="onehalf">
          244 0 82 185 98 229 -20 hstemhm
          121 123 258 259 -129 129 hintmask 11110100
          -25 callsubr
          297 -353 rmoveto
          15 27 24 11 21 hhcurveto
          12 7 -8 -17 -22 -18 -25 -42 -47 hvcurveto
          hintmask 11111000
          -26 -29 -44 -37 0 vvcurveto
          -82 267 95 -107 vlineto
          14 13 13 12 8 9 rrcurveto
          42 45 22 43 46 vvcurveto
          68 -50 34 -68 -57 -55 -20 -19 -32 vhcurveto
          endchar
        </CharString>
        <CharString name="onequarter">
          227 21 -21 70 86 438 -20 hstem
          121 123 362 107 vstem
          -25 callsubr
          469 -326 75 callsubr
          202 rlineto
          -109 76 callsubr
          -70 107 70 42 vlineto
          10 86 rlineto
          -52 hlineto
          endchar
        </CharString>
        <CharString name="ordfeminine">
          -132 327 98 -79 -21 272 96 hstemhm
          27 137 64 126 hintmask 10111000
          354 674 rmoveto
          7 -27 -56 12 -53 hhcurveto
          -121 -70 -80 -108 -106 50 -72 87 47 29 27 38 15 hvcurveto
          hintmask 01111000
          9 -40 25 -22 6 -5 101 31 rcurveline
          -9 8 -33 38 101 vvcurveto
          hintmask 10111000
          -165 -78 rmoveto
          -23 -2 42 44 47 11 39 34 6 7 -2 -2 6 hvcurveto
          -64 vlineto
          -54 -17 -50 -22 vhcurveto
          endchar
        </CharString>
        <CharString name="ordmasculine">
          -121 327 85 196 85 hstem
          37 138 79 137 vstem
          218 693 rmoveto
          -124 -57 -80 -107 -111 50 -68 125 123 56 81 106 112 -49 67 -124 hvcurveto
          -7 -85 rmoveto
          33 10 -45 -55 -53 -9 -43 -27 -33 -10 47 55 53 8 41 28 hvcurveto
          endchar
        </CharString>
        <CharString name="oslash">
          -30 -47 -21 638 -20 hstem
          -53 callsubr
          -89 22 -70 48 -44 hvcurveto
          -31 -63 99 -47 31 64 rlineto
          -4 18 20 -2 22 hhcurveto
          158 78 115 151 90 -22 69 -48 44 hvcurveto
          32 65 -99 46 -31 -64 rlineto
          4 -19 -20 2 -21 hhcurveto
          -9 -119 rmoveto
          4 5 0 -1 4 hvcurveto
          -73 -149 rlineto
          13 vlineto
          77 11 60 49 vhcurveto
          10 -284 rmoveto
          -5 -4 0 1 -4 hvcurveto
          73 149 rlineto
          -13 vlineto
          -75 -11 -62 -49 vhcurveto
          endchar
        </CharString>
        <CharString name="otilde">
          -10 callsubr
          68 1 callsubr
          -6 callsubr
          hintmask 11010110
          -103 callsubr
          -156 193 -83 callsubr
        </CharString>
        <CharString name="p">
          -1 52 callsubr
          72 158 124 168 vstem
          230 -194 rmoveto
          14 callsubr
          -126 -71 -44 -39 -75 -25 hvcurveto
          -9 75 -41 39 -27 callsubr
          -481 vlineto
          231 614 rmoveto
          48 3 -69 -75 -80 -18 -59 -65 -13 -19 5 2 -9 hvcurveto
          125 vlineto
          80 32 71 41 vhcurveto
          endchar
        </CharString>
        <CharString name="paragraph">
          42 -202 -21 900 -20 22 -20 hstemhm
          52 238 75 165 hintmask 10111000
          290 679 rmoveto
          -154 -84 -81 -133 -130 81 -85 157 hvcurveto
          hintmask 11011000
          240 427 rmoveto
          -165 -636 hlineto
          -48 0 -52 -100 -53 vhcurveto
          66 -111 rlineto
          112 54 87 62 150 vvcurveto
          endchar
        </CharString>
        <CharString name="parenleft">
          69 callsubr
          62 159 vstem
          62 269 rmoveto
          -262 138 -147 73 -51 vhcurveto
          83 92 rlineto
          -58 59 -77 117 191 vvcurveto
          189 78 118 57 59 vhcurveto
          -83 92 rlineto
          -73 -51 -138 -148 -258 vvcurveto
          endchar
        </CharString>
        <CharString name="parenright">
          69 callsubr
          172 58 callsubr
          330 269 rmoveto
          258 -138 148 -73 51 vhcurveto
          -83 -92 rlineto
          57 -59 79 -118 -189 vvcurveto
          -191 -78 -117 -58 -59 vhcurveto
          83 -92 rlineto
          73 51 138 147 262 vvcurveto
          endchar
        </CharString>
        <CharString name="percent">
          394 -8 83 154 83 -37 83 154 83 hstemhm
          32 138 74 138 180 138 74 138 hintmask 11011111
          210 595 -5 callsubr
          -6 -38 -28 -33 -7 42 62 60 6 36 28 hvcurveto
          62 -520 -11 callsubr
          hintmask 10111111
          193 -236 -5 callsubr
          -5 -38 -29 -34 -6 42 62 60 6 36 28 hvcurveto
          endchar
        </CharString>
        <CharString name="period">
          -268 -10 179 hstem
          52 177 vstem
          142 169 -31 callsubr
          endchar
        </CharString>
        <CharString name="periodcentered">
          -288 221 179 hstem
          42 177 vstem
          132 400 -31 callsubr
          endchar
        </CharString>
        <CharString name="plus">
          -45 117 -21 146 116 140 -20 hstem
          191 122 vstem
          52 242 rmoveto
          139 -146 122 146 140 116 -140 140 -122 -140 -139 hlineto
          endchar
        </CharString>
        <CharString name="plusminus">
          -45 23 116 104 116 139 -20 hstem
          192 122 vstem
          53 243 rmoveto
          139 -104 -140 -116 401 116 -139 104 139 116 -139 139 -122 -139 -139 hlineto
          endchar
        </CharString>
        <CharString name="q">
          -16 52 callsubr
          -9 callsubr
          vstem
          477 480 rmoveto
          0 -116 29 -83 -65 callsubr
          126 46 33 18 31 25 vhcurveto
          -237 vlineto
          158 -27 rlineto
          -231 331 -78 callsubr
          -107 vlineto
          -88 -30 -80 -43 vhcurveto
          endchar
        </CharString>
        <CharString name="question">
          -99 -10 179 406 112 hstemhm
          85 176 -16 177 hintmask 11010000
          232 687 rmoveto
          -88 -58 -24 -26 -57 hvcurveto
          49 -100 rlineto
          27 58 23 11 34 hhcurveto
          33 19 -27 -25 hvcurveto
          -73 -135 -86 -133 vvcurveto
          123 -33 17 49 27 36 37 46 rlinecurve
          49 60 59 72 77 vvcurveto
          98 -73 51 -117 vhcurveto
          -58 -518 rmoveto
          hintmask 11100000
          -58 -31 -40 -52 -47 31 -20 callsubr
          endchar
        </CharString>
        <CharString name="questiondown">
          -106 -192 112 406 179 hstemhm
          40 177 -16 176 hintmask 11100000
          230 -192 rmoveto
          88 58 24 26 57 hvcurveto
          -49 100 rlineto
          -27 -58 -23 -11 -34 hhcurveto
          -33 -19 27 25 hvcurveto
          73 135 86 133 vvcurveto
          -123 33 -17 -49 -27 -36 -37 -46 rlinecurve
          -49 -60 -59 -72 -77 vvcurveto
          -98 73 -51 117 vhcurveto
          58 518 rmoveto
          hintmask 11010000
          58 31 40 52 47 -31 40 -56 -58 -31 -40 -51 -51 31 -37 56 hvcurveto
          endchar
        </CharString>
        <CharString name="quotedbl">
          -140 420 257 hstem
          54 89 81 89 vstem
          42 54 callsubr
          17 callsubr
          60 hmoveto
          17 callsubr
          endchar
        </CharString>
        <CharString name="quotedblbase">
          -86 -154 42 callsubr
          62 153 vstem
          63 117 -51 callsubr
        </CharString>
        <CharString name="quotedblleft">
          -86 406 24 271 21 hstem
          27 154 61 -24 callsubr
          215 hmoveto
          -45 callsubr
          endchar
        </CharString>
        <CharString name="quotedblright">
          -86 428 42 callsubr
          62 153 vstem
          63 699 -51 callsubr
        </CharString>
        <CharString name="quoteleft">
          -301 406 24 271 21 hstem
          27 -24 callsubr
          endchar
        </CharString>
        <CharString name="quoteright">
          -297 427 42 callsubr
          vstem
          63 698 rmoveto
          -30 callsubr
          -40 -48 -35 vhcurveto
          58 -80 rlineto
          109 55 47 85 86 vvcurveto
          48 -39 callsubr
          endchar
        </CharString>
        <CharString name="quotesinglbase">
          -301 -154 42 callsubr
          vstem
          63 117 -48 callsubr
        </CharString>
        <CharString name="quotesingle">
          -317 420 257 hstem
          54 89 vstem
          50 54 callsubr
          17 callsubr
          endchar
        </CharString>
        <CharString name="r">
          -152 21 -21 358 151 hstem
          72 58 callsubr
          307 358 rmoveto
          22 16 -6 -5 9 hvcurveto
          41 151 rlineto
          5 -15 -22 6 -28 hhcurveto
          -62 -46 -26 -64 -33 hvcurveto
          -14 59 -31 31 -29 callsubr
          255 vlineto
          72 49 31 28 vhcurveto
          endchar
        </CharString>
        <CharString name="registered">
          34 214 65 348 66 hstem
          52 73 76 68 44 70 74 74 vstem
          52 454 rmoveto
          -140 97 -100 141 139 102 100 140 140 -97 99 -140 -140 -102 -100 -139 vhcurveto
          73 3 rmoveto
          100 69 70 96 99 68 -79 -99 -100 -69 -70 -98 -96 -69 79 99 vhcurveto
          159 124 rmoveto
          -33 -40 -1 -10 hhcurveto
          -255 68 100 5 vlineto
          26 -1 6 -23 31 -77 65 23 rcurveline
          -26 73 -8 23 -21 9 rrcurveto
          24 14 12 19 26 vvcurveto
          51 -36 19 -63 vhcurveto
          -3 -45 rmoveto
          23 9 -14 -18 -18 -7 -10 -20 -3 hvcurveto
          -1 -5 -7 -1 -5 hhcurveto
          65 vlineto
          endchar
        </CharString>
        <CharString name="ring">
          -58 622 68 83 69 hstem
          137 74 69 74 vstem
          137 732 -23 callsubr
        </CharString>
        <CharString name="s">
          -127 -10 120 283 118 hstem
          35 161 38 162 vstem
          212 511 rmoveto
          -111 -66 -64 -85 -75 40 -46 100 -40 hvcurveto
          34 -13 25 -21 -25 vvcurveto
          -21 -20 -11 -28 -45 -59 35 6 -13 vhcurveto
          -52 -115 rlineto
          -15 33 74 -31 92 hhcurveto
          118 62 75 86 77 -46 42 -79 33 hvcurveto
          -45 19 -30 21 21 vvcurveto
          20 17 9 21 41 46 -25 -11 22 vhcurveto
          50 112 rlineto
          0 -81 42 -100 vhcurveto
          endchar
        </CharString>
        <CharString name="section">
          33 -224 119 637 118 hstemhm
          42 155 -76 161 4 161 -76 154 hintmask 11100100
          371 181 rmoveto
          -35 -30 -18 -31 -11 vhcurveto
          -57 48 -56 40 41 vvcurveto
          34 29 18 31 11 vhcurveto
          58 -47 56 -41 -40 vvcurveto
          -101 -405 rmoveto
          hintmask 11101000
          112 65 66 86 44 -19 34 -23 27 hvcurveto
          hintmask 11010100
          86 39 34 55 70 vvcurveto
          74 -43 49 -61 47 vhcurveto
          -72 56 -67 44 34 vvcurveto
          22 15 9 23 28 35 -15 -9 20 vhcurveto
          48 110 rlineto
          15 -36 -53 17 -64 hhcurveto
          -112 -65 -65 -86 -44 18 -35 23 -27 hvcurveto
          hintmask 11101000
          -86 -39 -34 -55 -69 vvcurveto
          -70 39 -48 57 -46 vhcurveto
          73 -59 75 -45 -37 vvcurveto
          -21 -16 -9 -22 -28 -37 15 9 -18 vhcurveto
          -48 -110 rlineto
          -14 33 56 -19 64 hhcurveto
          endchar
        </CharString>
        <CharString name="semicolon">
          -241 332 180 hstem
          59 177 vstem
          148 512 rmoveto
          -58 -31 -41 -51 -48 31 -40 56 58 32 40 52 51 -32 37 -56 hvcurveto
          -77 -395 -48 callsubr
        </CharString>
        <CharString name="seven">
          -81 21 -21 502 135 hstem
          442 637 rmoveto
          -441 hlineto
          24 -135 rlineto
          233 hlineto
          -179 -502 rlineto
          168 hlineto
          195 547 rlineto
          endchar
        </CharString>
        <CharString name="six">
          -3 -9 108 205 109 111 120 hstem
          37 171 150 162 vstem
          470 615 rmoveto
          17 -35 -59 12 -49 hhcurveto
          -194 -96 -155 -171 -189 75 -138 167 149 92 91 123 142 -84 66 -109 -51 -39 -22 -22 -28 hvcurveto
          92 8 30 63 75 hhcurveto
          34 40 -10 -10 32 hvcurveto
          -143 -200 rmoveto
          45 28 -30 -70 -55 -19 -50 -50 -50 -26 48 122 -5 hvcurveto
          14 15 31 21 31 hhcurveto
          endchar
        </CharString>
        <CharString name="slash">
          6 callsubr
        </CharString>
        <CharString name="space">
          -295 endchar
        </CharString>
        <CharString name="sterling">
          23 -6 125 -113 117 113 121 162 124 hstemhm
          hintmask 01110000
          58 357 rmoveto
          -121 58 vlineto
          -3 -41 -5 -71 -45 -27 -9 -4 rlinecurve
          39 -95 rlineto
          1 11 55 7 78 hhcurveto
          hintmask 10110000
          45 49 -12 60 hhcurveto
          65 61 31 6 10 hvcurveto
          -47 111 rlineto
          -8 -13 -36 -15 -41 -39 -36 6 -38 hhcurveto
          hintmask 01110000
          -10 -11 -1 -1 -11 hvcurveto
          13 24 11 31 5 40 1 18 rcurveline
          153 hlineto
          21 121 rlineto
          -161 hlineto
          8 79 rlineto
          44 5 22 39 44 hhcurveto
          56 35 -30 -9 11 hvcurveto
          61 106 rlineto
          21 -24 -57 36 -89 hhcurveto
          -144 -75 -89 -125 -10 hvcurveto
          -5 -72 rlineto
          endchar
        </CharString>
        <CharString name="t">
          -158 -4 119 267 116 133 -20 hstem
          89 157 vstem
          10 382 rmoveto
          79 -250 hlineto
          -99 60 -37 100 68 47 15 9 27 vhcurveto
          -27 106 rlineto
          0 -40 -11 -32 -30 -16 15 29 vhcurveto
          223 99 vlineto
          19 116 rlineto
          -118 133 hlineto
          -137 -30 -17 -103 rlineto
          -82 hlineto
          endchar
        </CharString>
        <CharString name="thorn">
          -16 56 callsubr
          116 282 117 29 callsubr
          124 168 vstem
          215 725 rmoveto
          64 callsubr
          -919 vlineto
          158 27 rlineto
          14 callsubr
          -119 -48 -37 -18 -34 -26 hvcurveto
          73 -65 rmoveto
          48 3 -68 55 callsubr
          135 vlineto
          76 33 64 40 vhcurveto
          endchar
        </CharString>
        <CharString name="three">
          -39 -9 131 391 132 hstemhm
          275 170 -140 169 hintmask 11100000
          254 645 rmoveto
          -73 -74 -26 -34 -68 hvcurveto
          58 -118 rlineto
          27 52 38 19 46 hhcurveto
          27 15 -15 -23 -49 -86 -27 -89 -26 hvcurveto
          46 -112 rlineto
          1 6 51 13 30 hhcurveto
          hintmask 11010000
          36 36 -26 -41 -55 -40 -31 -42 -45 -61 29 19 -38 hvcurveto
          -52 -121 rlineto
          -28 61 91 -30 60 hhcurveto
          175 60 110 101 69 -41 65 -77 22 hvcurveto
          hintmask 11100000
          50 25 39 46 66 vvcurveto
          97 -79 53 -112 vhcurveto
          endchar
        </CharString>
        <CharString name="threequarters">
          266 21 -21 68 85 69 92 60 220 -97 97 hstemhm
          154 127 -103 118 343 107 hintmask 11110101
          200 -8 rmoveto
          133 hlineto
          281 602 rlineto
          -132 hlineto
          264 -329 75 callsubr
          203 rlineto
          -109 hlineto
          -78 -226 rlineto
          -62 163 -68 107 68 43 vlineto
          10 85 rlineto
          -53 hlineto
          -581 441 60 callsubr
          hintmask 11101101
          20 callsubr
          hintmask 11110011
          -16 callsubr
          hintmask 11101101
          50 callsubr
        </CharString>
        <CharString name="tilde">
          -58 580 1 callsubr
          hintmask 01000000
          74 586 3 callsubr
          hintmask 10000000
          -66 callsubr
          hintmask 00100000
          -36 callsubr
        </CharString>
        <CharString name="two">
          -45 0 42 471 132 hstem
          286 169 vstem
          86 465 rmoveto
          29 62 43 19 36 hhcurveto
          37 22 -28 -35 -51 -35 -54 -100 -106 hvcurveto
          -42 -60 -58 -78 -42 -59 18 -42 rcurveline
          445 135 -217 hlineto
          60 63 rlineto
          95 100 45 80 86 vvcurveto
          130 -87 51 -112 -80 -92 -37 -26 -56 vhcurveto
          endchar
        </CharString>
        <CharString name="u">
          7 -6 117 -98 -21 510 7 callsubr
          hintmask 10111000
          -86 callsubr
          hintmask 01111000
          -60 callsubr
          endchar
        </CharString>
        <CharString name="uacute">
          -61 callsubr
          -52 55 -56 callsubr
        </CharString>
        <CharString name="ucircumflex">
          66 callsubr
          96 -21 271 -89 callsubr
          -189 55 -74 callsubr
        </CharString>
        <CharString name="udieresis">
          66 callsubr
          108 151 36 callsubr
          -115 5 callsubr
          -131 158 hintmask 10111001
          -86 callsubr
          hintmask 01110101
          -60 callsubr
          -84 165 rmoveto
          -107 callsubr
          hintmask 10111010
          -100 callsubr
        </CharString>
        <CharString name="ugrave">
          -61 callsubr
          18 126 -41 callsubr
        </CharString>
        <CharString name="underscore">
          -50 -163 111 hstem
          -163 61 callsubr
        </CharString>
        <CharString name="uni00A0">
          -295 endchar
        </CharString>
        <CharString name="uni00AD">
          16 callsubr
        </CharString>
        <CharString name="uni00B2">
          -227 328 83 185 97 hstemhm
          31 258 -128 128 hintmask 11010000
          70 570 rmoveto
          15 26 25 11 21 hhcurveto
          11 8 -9 -16 -23 -19 -24 -42 -47 hvcurveto
          hintmask 11100000
          -26 -29 -43 -37 0 vvcurveto
          -83 267 95 -107 vlineto
          14 13 12 12 8 9 rrcurveto
          43 46 21 42 46 vvcurveto
          68 -50 34 -67 -58 -54 -20 -19 -33 vhcurveto
          endchar
        </CharString>
        <CharString name="uni00B3">
          -217 321 92 60 220 -97 97 hstemhm
          161 127 -103 118 hintmask 10110000
          172 693 60 callsubr
          20 callsubr
          hintmask 11001000
          -16 callsubr
          hintmask 10110000
          50 callsubr
        </CharString>
        <CharString name="uni00B5">
          11 56 callsubr
          80 callsubr
          hstem
          57 158 116 58 callsubr
          57 -221 rmoveto
          158 27 rlineto
          201 vlineto
          -8 15 17 -5 18 hhcurveto
          46 38 27 59 22 hvcurveto
          15 -58 29 -28 3 -2 126 40 rcurveline
          -1 2 -54 49 158 vvcurveto
          261 -158 -256 vlineto
          -83 -32 -52 -35 -30 -19 28 42 vhcurveto
          321 -158 vlineto
          endchar
        </CharString>
        <CharString name="uni00B9">
          -265 349 -21 356 -20 hstem
          122 123 vstem
          143 684 rmoveto
          -38 -35 -70 -29 -33 -11 47 -87 rcurveline
          28 9 24 16 21 19 40 callsubr
          endchar
        </CharString>
        <CharString name="uni2074">
          -195 349 -21 68 86 202 -20 hstem
          184 106 vstem
          290 594 rmoveto
          -106 -20 rlineto
          -92 -49 vlineto
          72 202 rlineto
          -108 76 callsubr
          -68 106 68 43 vlineto
          10 86 rlineto
          -53 hlineto
          endchar
        </CharString>
        <CharString name="uni2215">
          6 callsubr
        </CharString>
        <CharString name="v">
          -25 59 callsubr
          120 58 callsubr
          318 502 rmoveto
          4 -26 8 -43 -66 vvcurveto
          -122 -21 -139 -63 -26 -10 31 39 vhcurveto
          326 -158 -329 vlineto
          -108 53 -71 114 183 86 104 277 52 -7 54 -5 21 vhcurveto
          endchar
        </CharString>
        <CharString name="w">
          221 59 callsubr
          104 156 105 58 callsubr
          564 502 rmoveto
          3 -26 8 -42 -67 vvcurveto
          -137 -6 -124 -59 -26 -14 32 38 vhcurveto
          49 2 276 1 vvcurveto
          -158 -198 hlineto
          -139 -20 -59 -44 -26 -14 32 38 vhcurveto
          326 -158 -330 vlineto
          -108 39 -70 113 66 46 14 52 36 vhcurveto
          -43 26 40 -23 54 hhcurveto
          182 79 104 277 52 -7 54 -4 21 hvcurveto
          endchar
        </CharString>
        <CharString name="x">
          -39 21 -21 498 -20 hstem
          161 hmoveto
          69 115 23 45 8 -17 8 -17 7 -11 rlinecurve
          66 -115 rlineto
          176 hlineto
          -162 264 31 32 32 38 23 41 rlinecurve
          31 55 15 43 4 25 rrcurveto
          -164 hlineto
          -3 -19 -10 -32 -19 -37 -7 -13 -12 -25 -10 -15 -6 16 -9 18 -6 11 -60 96 rcurveline
          -178 hlineto
          149 -234 -170 -264 rlineto
          endchar
        </CharString>
        <CharString name="y">
          18 callsubr
          36 callsubr
          116 79 callsubr
          hintmask 11111000
          -50 callsubr
          hintmask 11110100
          -46 callsubr
          hintmask 11111000
          63 callsubr
          endchar
        </CharString>
        <CharString name="yacute">
          18 callsubr
          96 -21 285 11 callsubr
          79 callsubr
          hintmask 11111110
          -50 callsubr
          hintmask 11111101
          -46 callsubr
          hintmask 11111110
          63 callsubr
          -208 326 -56 callsubr
        </CharString>
        <CharString name="ydieresis">
          18 callsubr
          108 151 36 callsubr
          -116 5 callsubr
          -130 79 callsubr
          hintmask 1111100100000000
          -50 callsubr
          hintmask 1111100010000000
          -46 callsubr
          hintmask 1111010100000000
          63 callsubr
          -240 436 rmoveto
          -107 callsubr
          hintmask 1111101000000000
          -100 callsubr
        </CharString>
        <CharString name="yen">
          81 21 -21 76 118 41 117 292 -20 hstem
          230 164 vstem
          99 352 rmoveto
          -117 131 -41 -131 -118 131 -76 164 76 132 118 -132 41 132 117 -83 vlineto
          166 292 rlineto
          -173 hlineto
          -121 -243 -118 243 rlineto
          -175 hlineto
          165 -292 rlineto
          endchar
        </CharString>
        <CharString name="z">
          -127 0 115 267 116 hstem
          406 hmoveto
          115 -137 vlineto
          -18 -17 -1 -1 -17 hvcurveto
          180 288 rlineto
          97 -367 vlineto
          20 -116 rlineto
          92 hlineto
          22 23 1 1 25 hvcurveto
          -190 -296 rlineto
          -88 vlineto
          endchar
        </CharString>
        <CharString name="zero">
          44 -9 110 433 111 hstem
          37 170 178 171 vstem
          304 645 rmoveto
          -173 -94 -136 -200 -203 89 -115 165 173 92 135 199 201 -87 119 -165 hvcurveto
          -13 -111 rmoveto
          77 17 -88 -133 -140 -22 -72 -60 -78 -18 86 133 142 23 72 61 hvcurveto
          endchar
        </CharString>
</ttFont>
